<mxfile host="app.diagrams.net" modified="2021-08-13T20:17:08.700Z" agent="5.0 (Windows NT 10.0; Win64; x64) AppleWebKit/537.36 (KHTML, like Gecko) Chrome/92.0.4515.131 Safari/537.36" etag="a6MHhjFNcgAx6jIToMze" version="14.6.13" type="github">
  <diagram id="8wdyi_buJdKuLrhuokA7" name="Page-1">
    <mxGraphModel dx="1209" dy="2226" grid="1" gridSize="10" guides="1" tooltips="1" connect="1" arrows="1" fold="1" page="1" pageScale="1" pageWidth="1200" pageHeight="1600" math="0" shadow="0">
      <root>
        <mxCell id="0" />
        <mxCell id="1" parent="0" />
        <mxCell id="ocKwcqcW2kOwNNpAmWde-7" style="edgeStyle=orthogonalEdgeStyle;rounded=0;orthogonalLoop=1;jettySize=auto;html=1;" edge="1" parent="1" source="ocKwcqcW2kOwNNpAmWde-2">
          <mxGeometry relative="1" as="geometry">
            <mxPoint x="380" y="109" as="targetPoint" />
          </mxGeometry>
        </mxCell>
        <mxCell id="ocKwcqcW2kOwNNpAmWde-2" value="" style="aspect=fixed;perimeter=ellipsePerimeter;html=1;align=center;shadow=0;dashed=0;spacingTop=3;image;image=img/lib/active_directory/user_accounts.svg;" vertex="1" parent="1">
          <mxGeometry x="50" y="50" width="122.16" height="118.5" as="geometry" />
        </mxCell>
        <mxCell id="ocKwcqcW2kOwNNpAmWde-8" style="edgeStyle=orthogonalEdgeStyle;rounded=0;orthogonalLoop=1;jettySize=auto;html=1;" edge="1" parent="1" target="ocKwcqcW2kOwNNpAmWde-4">
          <mxGeometry relative="1" as="geometry">
            <mxPoint x="710" y="280" as="sourcePoint" />
            <Array as="points">
              <mxPoint x="710" y="230" />
              <mxPoint x="135" y="230" />
            </Array>
          </mxGeometry>
        </mxCell>
        <mxCell id="ocKwcqcW2kOwNNpAmWde-11" style="edgeStyle=orthogonalEdgeStyle;rounded=0;orthogonalLoop=1;jettySize=auto;html=1;exitX=0.5;exitY=1;exitDx=0;exitDy=0;" edge="1" parent="1" source="ocKwcqcW2kOwNNpAmWde-3">
          <mxGeometry relative="1" as="geometry">
            <mxPoint x="410" y="230" as="targetPoint" />
          </mxGeometry>
        </mxCell>
        <mxCell id="ocKwcqcW2kOwNNpAmWde-29" style="edgeStyle=orthogonalEdgeStyle;rounded=0;orthogonalLoop=1;jettySize=auto;html=1;entryX=0;entryY=0.5;entryDx=0;entryDy=0;entryPerimeter=0;" edge="1" parent="1" source="ocKwcqcW2kOwNNpAmWde-3" target="ocKwcqcW2kOwNNpAmWde-27">
          <mxGeometry relative="1" as="geometry" />
        </mxCell>
        <mxCell id="ocKwcqcW2kOwNNpAmWde-30" style="edgeStyle=orthogonalEdgeStyle;rounded=0;orthogonalLoop=1;jettySize=auto;html=1;" edge="1" parent="1" source="ocKwcqcW2kOwNNpAmWde-3">
          <mxGeometry relative="1" as="geometry">
            <mxPoint x="600" y="170" as="targetPoint" />
          </mxGeometry>
        </mxCell>
        <mxCell id="ocKwcqcW2kOwNNpAmWde-3" value="" style="image;html=1;image=img/lib/clip_art/computers/Server_Rack_Empty_128x128.png" vertex="1" parent="1">
          <mxGeometry x="340" y="50" width="140" height="130" as="geometry" />
        </mxCell>
        <mxCell id="ocKwcqcW2kOwNNpAmWde-13" style="edgeStyle=none;rounded=0;orthogonalLoop=1;jettySize=auto;html=1;entryX=0.101;entryY=0.55;entryDx=0;entryDy=0;entryPerimeter=0;" edge="1" parent="1" source="ocKwcqcW2kOwNNpAmWde-4" target="ocKwcqcW2kOwNNpAmWde-5">
          <mxGeometry relative="1" as="geometry" />
        </mxCell>
        <mxCell id="ocKwcqcW2kOwNNpAmWde-17" style="rounded=0;orthogonalLoop=1;jettySize=auto;html=1;" edge="1" parent="1" source="ocKwcqcW2kOwNNpAmWde-4" target="ocKwcqcW2kOwNNpAmWde-14">
          <mxGeometry relative="1" as="geometry" />
        </mxCell>
        <mxCell id="ocKwcqcW2kOwNNpAmWde-4" value="" style="aspect=fixed;html=1;points=[];align=center;image;fontSize=12;image=img/lib/mscae/CloudSimple_Nodes.svg;" vertex="1" parent="1">
          <mxGeometry x="83.9" y="274.9" width="109" height="111.22" as="geometry" />
        </mxCell>
        <mxCell id="ocKwcqcW2kOwNNpAmWde-9" style="edgeStyle=orthogonalEdgeStyle;rounded=0;orthogonalLoop=1;jettySize=auto;html=1;" edge="1" parent="1" source="ocKwcqcW2kOwNNpAmWde-5">
          <mxGeometry relative="1" as="geometry">
            <mxPoint x="670" y="330" as="targetPoint" />
          </mxGeometry>
        </mxCell>
        <mxCell id="ocKwcqcW2kOwNNpAmWde-18" style="edgeStyle=none;rounded=0;orthogonalLoop=1;jettySize=auto;html=1;entryX=0.247;entryY=-0.015;entryDx=0;entryDy=0;entryPerimeter=0;" edge="1" parent="1" source="ocKwcqcW2kOwNNpAmWde-5" target="ocKwcqcW2kOwNNpAmWde-15">
          <mxGeometry relative="1" as="geometry" />
        </mxCell>
        <mxCell id="ocKwcqcW2kOwNNpAmWde-5" value="" style="aspect=fixed;html=1;points=[];align=center;image;fontSize=12;image=img/lib/mscae/CloudSimple_Nodes.svg;" vertex="1" parent="1">
          <mxGeometry x="350" y="280" width="99" height="101.02" as="geometry" />
        </mxCell>
        <mxCell id="ocKwcqcW2kOwNNpAmWde-19" style="edgeStyle=none;rounded=0;orthogonalLoop=1;jettySize=auto;html=1;entryX=0.321;entryY=-0.046;entryDx=0;entryDy=0;entryPerimeter=0;" edge="1" parent="1" source="ocKwcqcW2kOwNNpAmWde-6" target="ocKwcqcW2kOwNNpAmWde-16">
          <mxGeometry relative="1" as="geometry" />
        </mxCell>
        <mxCell id="ocKwcqcW2kOwNNpAmWde-6" value="" style="aspect=fixed;html=1;points=[];align=center;image;fontSize=12;image=img/lib/mscae/CloudSimple_Nodes.svg;" vertex="1" parent="1">
          <mxGeometry x="650" y="280" width="98" height="100" as="geometry" />
        </mxCell>
        <mxCell id="ocKwcqcW2kOwNNpAmWde-14" value="" style="points=[];aspect=fixed;html=1;align=center;shadow=0;dashed=0;image;image=img/lib/allied_telesis/storage/Datacenter_Server_Storage_Unit_Large.svg;" vertex="1" parent="1">
          <mxGeometry x="100" y="460" width="76.8" height="79.2" as="geometry" />
        </mxCell>
        <mxCell id="ocKwcqcW2kOwNNpAmWde-15" value="" style="points=[];aspect=fixed;html=1;align=center;shadow=0;dashed=0;image;image=img/lib/allied_telesis/storage/Datacenter_Server_Storage_Unit_Large.svg;" vertex="1" parent="1">
          <mxGeometry x="380" y="460" width="76.8" height="79.2" as="geometry" />
        </mxCell>
        <mxCell id="ocKwcqcW2kOwNNpAmWde-16" value="" style="points=[];aspect=fixed;html=1;align=center;shadow=0;dashed=0;image;image=img/lib/allied_telesis/storage/Datacenter_Server_Storage_Unit_Large.svg;" vertex="1" parent="1">
          <mxGeometry x="671.2" y="450" width="76.8" height="79.2" as="geometry" />
        </mxCell>
        <mxCell id="ocKwcqcW2kOwNNpAmWde-20" value="NAMENODE" style="text;html=1;strokeColor=none;fillColor=none;align=center;verticalAlign=middle;whiteSpace=wrap;rounded=0;" vertex="1" parent="1">
          <mxGeometry x="359.5" y="10" width="130.5" height="50" as="geometry" />
        </mxCell>
        <mxCell id="ocKwcqcW2kOwNNpAmWde-21" value="Datanode1" style="text;html=1;strokeColor=none;fillColor=none;align=center;verticalAlign=middle;whiteSpace=wrap;rounded=0;" vertex="1" parent="1">
          <mxGeometry x="152.9" y="260" width="40" height="20" as="geometry" />
        </mxCell>
        <mxCell id="ocKwcqcW2kOwNNpAmWde-22" value="Datanode2" style="text;html=1;strokeColor=none;fillColor=none;align=center;verticalAlign=middle;whiteSpace=wrap;rounded=0;" vertex="1" parent="1">
          <mxGeometry x="390" y="260" width="40" height="20" as="geometry" />
        </mxCell>
        <mxCell id="ocKwcqcW2kOwNNpAmWde-23" value="Datanode3&amp;nbsp;" style="text;html=1;strokeColor=none;fillColor=none;align=center;verticalAlign=middle;whiteSpace=wrap;rounded=0;" vertex="1" parent="1">
          <mxGeometry x="650" y="260" width="40" height="20" as="geometry" />
        </mxCell>
        <mxCell id="ocKwcqcW2kOwNNpAmWde-24" value="Storage" style="text;html=1;strokeColor=none;fillColor=none;align=center;verticalAlign=middle;whiteSpace=wrap;rounded=0;" vertex="1" parent="1">
          <mxGeometry x="118.4" y="550" width="40" height="20" as="geometry" />
        </mxCell>
        <mxCell id="ocKwcqcW2kOwNNpAmWde-25" value="Storage" style="text;html=1;strokeColor=none;fillColor=none;align=center;verticalAlign=middle;whiteSpace=wrap;rounded=0;" vertex="1" parent="1">
          <mxGeometry x="409" y="550" width="40" height="20" as="geometry" />
        </mxCell>
        <mxCell id="ocKwcqcW2kOwNNpAmWde-26" value="Storage" style="text;html=1;strokeColor=none;fillColor=none;align=center;verticalAlign=middle;whiteSpace=wrap;rounded=0;" vertex="1" parent="1">
          <mxGeometry x="700" y="540" width="40" height="20" as="geometry" />
        </mxCell>
        <mxCell id="ocKwcqcW2kOwNNpAmWde-27" value="" style="points=[[0,0,0],[0.25,0,0],[0.5,0,0],[0.75,0,0],[1,0,0],[0,1,0],[0.25,1,0],[0.5,1,0],[0.75,1,0],[1,1,0],[0,0.25,0],[0,0.5,0],[0,0.75,0],[1,0.25,0],[1,0.5,0],[1,0.75,0]];outlineConnect=0;fontColor=#232F3E;gradientColor=#F54749;gradientDirection=north;fillColor=#C7131F;strokeColor=#ffffff;dashed=0;verticalLabelPosition=bottom;verticalAlign=top;align=center;html=1;fontSize=12;fontStyle=0;aspect=fixed;shape=mxgraph.aws4.resourceIcon;resIcon=mxgraph.aws4.resource_access_manager;" vertex="1" parent="1">
          <mxGeometry x="610" y="36.8" width="61.2" height="61.2" as="geometry" />
        </mxCell>
        <mxCell id="ocKwcqcW2kOwNNpAmWde-28" value="" style="html=1;dashed=0;whitespace=wrap;fillColor=#2875E2;strokeColor=#ffffff;points=[[0.005,0.63,0],[0.1,0.2,0],[0.9,0.2,0],[0.5,0,0],[0.995,0.63,0],[0.72,0.99,0],[0.5,1,0],[0.28,0.99,0]];shape=mxgraph.kubernetes.icon;prIcon=job" vertex="1" parent="1">
          <mxGeometry x="610" y="130" width="68.8" height="68" as="geometry" />
        </mxCell>
        <mxCell id="ocKwcqcW2kOwNNpAmWde-31" value="Resource-Mnaager" style="text;html=1;strokeColor=none;fillColor=none;align=center;verticalAlign=middle;whiteSpace=wrap;rounded=0;" vertex="1" parent="1">
          <mxGeometry x="679" y="50" width="40" height="20" as="geometry" />
        </mxCell>
        <mxCell id="ocKwcqcW2kOwNNpAmWde-32" value="Job-history" style="text;html=1;strokeColor=none;fillColor=none;align=center;verticalAlign=middle;whiteSpace=wrap;rounded=0;" vertex="1" parent="1">
          <mxGeometry x="679" y="154" width="40" height="20" as="geometry" />
        </mxCell>
        <mxCell id="ocKwcqcW2kOwNNpAmWde-33" value="NodeMnagaer" style="text;html=1;strokeColor=none;fillColor=none;align=center;verticalAlign=middle;whiteSpace=wrap;rounded=0;" vertex="1" parent="1">
          <mxGeometry x="240" y="310" width="40" height="20" as="geometry" />
        </mxCell>
        <mxCell id="ocKwcqcW2kOwNNpAmWde-44" style="edgeStyle=orthogonalEdgeStyle;rounded=0;orthogonalLoop=1;jettySize=auto;html=1;entryX=1.031;entryY=0.191;entryDx=0;entryDy=0;entryPerimeter=0;" edge="1" parent="1" source="ocKwcqcW2kOwNNpAmWde-34" target="ocKwcqcW2kOwNNpAmWde-4">
          <mxGeometry relative="1" as="geometry" />
        </mxCell>
        <mxCell id="ocKwcqcW2kOwNNpAmWde-34" value="" style="pointerEvents=1;shadow=0;dashed=0;html=1;strokeColor=none;fillColor=#505050;labelPosition=center;verticalLabelPosition=bottom;verticalAlign=top;outlineConnect=0;align=center;shape=mxgraph.office.communications.watcher_node;" vertex="1" parent="1">
          <mxGeometry x="240" y="254" width="52" height="56" as="geometry" />
        </mxCell>
        <mxCell id="ocKwcqcW2kOwNNpAmWde-48" style="edgeStyle=orthogonalEdgeStyle;rounded=0;orthogonalLoop=1;jettySize=auto;html=1;" edge="1" parent="1" source="ocKwcqcW2kOwNNpAmWde-35">
          <mxGeometry relative="1" as="geometry">
            <mxPoint x="450" y="320" as="targetPoint" />
          </mxGeometry>
        </mxCell>
        <mxCell id="ocKwcqcW2kOwNNpAmWde-35" value="" style="pointerEvents=1;shadow=0;dashed=0;html=1;strokeColor=none;fillColor=#505050;labelPosition=center;verticalLabelPosition=bottom;verticalAlign=top;outlineConnect=0;align=center;shape=mxgraph.office.communications.watcher_node;" vertex="1" parent="1">
          <mxGeometry x="500" y="264" width="52" height="56" as="geometry" />
        </mxCell>
        <mxCell id="ocKwcqcW2kOwNNpAmWde-49" style="edgeStyle=orthogonalEdgeStyle;rounded=0;orthogonalLoop=1;jettySize=auto;html=1;" edge="1" parent="1" source="ocKwcqcW2kOwNNpAmWde-36" target="ocKwcqcW2kOwNNpAmWde-6">
          <mxGeometry relative="1" as="geometry" />
        </mxCell>
        <mxCell id="ocKwcqcW2kOwNNpAmWde-36" value="" style="pointerEvents=1;shadow=0;dashed=0;html=1;strokeColor=none;fillColor=#505050;labelPosition=center;verticalLabelPosition=bottom;verticalAlign=top;outlineConnect=0;align=center;shape=mxgraph.office.communications.watcher_node;" vertex="1" parent="1">
          <mxGeometry x="770" y="264" width="52" height="56" as="geometry" />
        </mxCell>
        <mxCell id="ocKwcqcW2kOwNNpAmWde-39" value="NodeMnagaer" style="text;html=1;strokeColor=none;fillColor=none;align=center;verticalAlign=middle;whiteSpace=wrap;rounded=0;" vertex="1" parent="1">
          <mxGeometry x="850" y="298" width="40" height="20" as="geometry" />
        </mxCell>
        <mxCell id="ocKwcqcW2kOwNNpAmWde-40" value="NodeMnagaer" style="text;html=1;strokeColor=none;fillColor=none;align=center;verticalAlign=middle;whiteSpace=wrap;rounded=0;" vertex="1" parent="1">
          <mxGeometry x="570" y="290" width="40" height="20" as="geometry" />
        </mxCell>
        <mxCell id="ocKwcqcW2kOwNNpAmWde-50" value="&lt;h1&gt;/Data is the hdfs filesystems where the data-set is been put and replicated to datanodes&lt;/h1&gt;" style="text;html=1;strokeColor=#b85450;fillColor=#f8cecc;spacing=5;spacingTop=-20;whiteSpace=wrap;overflow=hidden;rounded=0;" vertex="1" parent="1">
          <mxGeometry x="83.9" y="-23.200000000000003" width="650" height="60" as="geometry" />
        </mxCell>
        <mxCell id="ocKwcqcW2kOwNNpAmWde-51" value="Storage Layer(Hadoop Hdfs)" style="html=1;shape=mxgraph.infographic.ribbonSimple;notch1=20;notch2=20;align=center;verticalAlign=middle;fontSize=14;fontStyle=0;fillColor=#dae8fc;strokeColor=#6c8ebf;" vertex="1" parent="1">
          <mxGeometry x="110" y="570" width="700" height="40" as="geometry" />
        </mxCell>
        <mxCell id="ocKwcqcW2kOwNNpAmWde-52" value="Process Bar" style="swimlane;childLayout=stackLayout;horizontal=1;fillColor=none;horizontalStack=1;resizeParent=1;resizeParentMax=0;resizeLast=0;collapsible=0;strokeColor=none;stackBorder=10;stackSpacing=-12;resizable=1;align=center;points=[];fontColor=#000000;" vertex="1" parent="1">
          <mxGeometry x="70" y="390" width="750" height="66" as="geometry" />
        </mxCell>
        <mxCell id="ocKwcqcW2kOwNNpAmWde-53" value="Yarn(Resource-manager)" style="shape=step;perimeter=stepPerimeter;fixedSize=1;points=[];fillColor=#fff2cc;strokeColor=#d6b656;" vertex="1" parent="ocKwcqcW2kOwNNpAmWde-52">
          <mxGeometry x="10" y="33" width="240" height="23" as="geometry" />
        </mxCell>
        <mxCell id="ocKwcqcW2kOwNNpAmWde-54" value="Yarn(Resource-manager)" style="shape=step;perimeter=stepPerimeter;fixedSize=1;points=[];fillColor=#f8cecc;strokeColor=#b85450;" vertex="1" parent="ocKwcqcW2kOwNNpAmWde-52">
          <mxGeometry x="238" y="33" width="262" height="23" as="geometry" />
        </mxCell>
        <mxCell id="ocKwcqcW2kOwNNpAmWde-55" value="Yarn(Resource-manager)" style="shape=step;perimeter=stepPerimeter;fixedSize=1;points=[];fillColor=#f5f5f5;strokeColor=#666666;fontColor=#333333;" vertex="1" parent="ocKwcqcW2kOwNNpAmWde-52">
          <mxGeometry x="488" y="33" width="252" height="23" as="geometry" />
        </mxCell>
      </root>
    </mxGraphModel>
  </diagram>
</mxfile>
